<svg id="icon" xmlns="http://www.w3.org/2000/svg" viewBox="0 0 512 512"><rect x="303.392" y="334.566" width="152.822" height="61.345" style="fill:#e6e6e6"/><path d="M456.214,313.242h8.278A23.938,23.938,0,0,1,488.43,337.18v58.731H456.214Z" style="fill:#53737f"/><rect x="293.995" y="334.566" width="29.348" height="61.345" style="fill:#b3b3b3"/><path d="M183.541,124.857h68.327c14.585-.105,22.029,8.819,31.827,17.832a31.95,31.95,0,0,1,10.3,23.5v67.962Z" style="fill:#53737f"/><path d="M158.851,116.089H51.958A28.388,28.388,0,0,0,23.57,144.477V367.523a28.388,28.388,0,0,0,28.388,28.388H278.9a24.488,24.488,0,0,0,24.487-24.487V260.63A144.541,144.541,0,0,0,158.851,116.089Z" style="fill:#ffb14a"/><path d="M242.047,256a78.566,78.566,0,0,1-78.566,78.566c-104-3.594-103.976-153.553,0-157.132A78.566,78.566,0,0,1,242.047,256Z" style="fill:#53737f"/><path d="M86.082,350.455a15.89,15.89,0,0,1-15.89,15.89c-21.034-.727-21.028-31.055,0-31.779A15.889,15.889,0,0,1,86.082,350.455Z" style="fill:#53737f"/><path d="M84.915,256a78.335,78.335,0,0,0,5.417,28.662h146.3c7.166-17.562,7.166-39.763,0-57.324H90.332A78.335,78.335,0,0,0,84.915,256Z" style="fill:#fff"/><path d="M51.958,401.731H281.1a28.141,28.141,0,0,0,28.109-28.109V340.386h26.565V353.91a5.82,5.82,0,1,0,11.64,0V340.386h26.565v22.255a5.821,5.821,0,0,0,11.641,0V340.386h26.565V353.91a5.82,5.82,0,0,0,11.64,0V340.386h26.566v50.769a5.82,5.82,0,0,0,11.64,0V319.062c10.79-1.06,20.645,7.07,20.576,18.118v52.911H279.747a5.82,5.82,0,0,0,0,11.64c23.974.011,187.423-.007,208.683,0a5.82,5.82,0,0,0,5.82-5.82V337.18a29.793,29.793,0,0,0-29.758-29.759h-8.278a5.821,5.821,0,0,0-5.82,5.821v15.5H309.212V260.63c0-17.967-4.722-36.762-7.537-46.365a46.689,46.689,0,0,1-1.86-13.128V166.186a37.881,37.881,0,0,0-12.175-27.778l-10.174-9.375a37.674,37.674,0,0,0-25.6-10h-43.3a147.035,147.035,0,0,0-49.719-8.768H51.958A34.247,34.247,0,0,0,17.75,144.477V367.523A34.247,34.247,0,0,0,51.958,401.731ZM29.39,144.477a22.594,22.594,0,0,1,22.568-22.568H158.851c42.9,0,84.656,21.105,111.707,56.455a5.821,5.821,0,1,0,9.245-7.075,157.615,157.615,0,0,0-46.191-40.612h18.256a26.067,26.067,0,0,1,17.71,6.916c9.083,8.554,18.628,14.629,18.6,28.593.479,11.866-1.582,40.334,2.331,51.353,2.639,9,7.067,26.576,7.067,43.091V373.622A16.488,16.488,0,0,1,281.1,390.091H51.958A22.594,22.594,0,0,1,29.39,367.523Z" style="fill:#333"/><path d="M85.048,287.071c35.666,85.694,161.1,61.887,162.819-31.072C246.61,162.6,119.14,139.771,84.891,225.326,77.17,244.283,77.228,268.154,85.048,287.071Zm78.433,41.675a72.808,72.808,0,0,1-64.037-38.264H227.518A72.809,72.809,0,0,1,163.481,328.746ZM94.43,233.158H235.857a5.821,5.821,0,1,0,0-11.641H99.444c43.772-76.579,158.6-27.938,133.088,57.325H94.429A72.973,72.973,0,0,1,94.43,233.158Z" style="fill:#333"/><path d="M70.192,372.165a21.735,21.735,0,0,0,21.71-21.71c-1.02-28.733-42.4-28.725-43.42,0A21.735,21.735,0,0,0,70.192,372.165Zm0-31.779a10.08,10.08,0,0,1,10.069,10.069c-.473,13.328-19.667,13.324-20.138,0A10.08,10.08,0,0,1,70.192,340.386Z" style="fill:#333"/></svg>